# xmcd
#
# Track frame offsets: 
#        150
#        18205
#        32120
#        46131
#        63369
#        79590
#        98236
#        114581
#        130732
#        149067
#        166244
#        181363
#
# Disc length: 2643 seconds
#
# Revision: 0
# Processed by: cddbd v1.5.2PL0 Copyright (c) Steve Scherf et al.
# Submitted via: ExactAudioCopyFreeDBPlugin 1.0
#
DISCID=9a0a510c
DTITLE=Chris D. Wildcat - Rockin' Is My Business
DYEAR=2010
DGENRE=Rock and Roll
TTITLE0=You'll Never Get Out
TTITLE1=Daisy Town
TTITLE2=Rockin' Is My Business
TTITLE3=Bucketful Of Cold Water
TTITLE4=Contemporary Darling
TTITLE5=Rolling Dice
TTITLE6=Keep On Running Faster
TTITLE7=It's A Shame
TTITLE8=My Time Has Come
TTITLE9=The Time Has Come
TTITLE10=We're Through (Lonely And Blue)
TTITLE11=You Can't Leave Me Now
EXTD=
EXTT0=
EXTT1=
EXTT2=
EXTT3=
EXTT4=
EXTT5=
EXTT6=
EXTT7=
EXTT8=
EXTT9=
EXTT10=
EXTT11=
PLAYORDER=
